<?xml version="1.0" encoding="UTF-8" standalone="no"?>
<!-- Created with Inkscape (http://www.inkscape.org/) -->

<svg
   width="512mm"
   height="512mm"
   viewBox="0 0 512 512"
   version="1.1"
   id="svg5"
   xml:space="preserve"
   xmlns="http://www.w3.org/2000/svg"
   xmlns:svg="http://www.w3.org/2000/svg"
   xmlns:rdf="http://www.w3.org/1999/02/22-rdf-syntax-ns#"
   xmlns:cc="http://creativecommons.org/ns#"><defs
     id="defs2" /><g
     id="layer1"
     transform="translate(243.7578,39.255653)"><path
       style="fill:#ffffff;fill-opacity:1;stroke-width:0.495225"
       d="m 10.023302,447.52227 c -2.2463102,-0.72181 -3.4921399,-2.11057 -4.6771038,-5.21376 -2.4771031,-6.48695 -4.86282983,-8.63917 -11.0310933,-9.95128 -3.3490935,-0.71246 -4.7367119,-1.7296 -5.1256369,-3.75724 -0.417928,-2.17885 1.4254417,-4.65296 4.7045244,-6.31414 3.6879033,-1.86831 10.0010551,-1.93074 15.0504034,-0.14882 l 3.3780962,1.19214 3.194928,-1.20257 c 2.545112,-0.95797 4.131488,-1.20258 7.799482,-1.20258 4.04128,0 4.93337,0.16668 7.292756,1.36187 3.279083,1.66118 5.122444,4.13528 4.704512,6.31412 -0.402328,2.09752 -1.762105,3.02567 -5.767395,3.93664 -4.673657,1.063 -6.936859,2.64353 -8.76752,6.12282 -0.815051,1.54902 -1.647863,3.37354 -1.850677,4.05447 -1.18784,3.98796 -5.01961,6.05684 -8.905276,4.80834 z m -77.750383,-68.03558 c -4.552029,-0.28507 -12.911236,-1.99898 -17.085279,-3.50308 -16.36093,-5.89553 -26.7487,-19.09579 -31.15432,-39.58939 -1.20456,-5.60321 -1.89672,-15.22101 -1.12954,-15.69515 2.05272,-1.26865 27.30644,-4.91868 26.632246,-3.84928 -0.112477,0.17834 -1.204167,1.81232 -2.425895,3.63079 -1.22174,1.81846 -2.495941,4.15841 -2.831548,5.19986 -0.335618,1.04144 -0.779866,2.11642 -0.987222,2.38879 -1.686403,2.21516 -2.166065,14.7017 -0.770454,20.05661 1.455661,5.58533 4.454779,10.97532 8.382634,15.06522 5.871482,6.11371 12.098411,9.06624 20.086665,9.52417 16.566439,0.94969 30.387951,-10.69797 32.998341,-27.80834 0.04154,-0.27239 0.116896,-2.38948 0.167445,-4.70463 l 0.0919,-4.20943 1.030818,1.23808 c 2.773874,3.33153 7.053192,13.65903 8.823694,21.29467 0.638276,2.75272 1.988616,13.04952 1.993989,15.20492 0.0044,1.86316 -0.491782,2.06369 -8.975974,3.62581 -11.677822,2.15014 -23.242427,2.85713 -34.847518,2.13038 z m 139.405945,-0.1384 c -8.216443,-0.77954 -16.65835,-2.19683 -21.418494,-3.59593 -2.207716,-0.64886 -2.219349,-0.74614 -1.112539,-9.30307 1.26783,-9.80159 3.104023,-16.06966 6.947176,-23.71504 3.7464,-7.45291 4.173952,-7.70015 4.269118,-2.46874 0.04139,2.28041 0.109381,4.36907 0.151053,4.64146 1.87761,12.30721 10.196648,22.54988 21.563495,26.54969 4.345517,1.52913 14.148953,1.65739 18.323347,0.23985 5.14663,-1.74782 8.56381,-3.9063 12.62896,-7.97717 6.55945,-6.56869 9.66151,-14.00495 9.81019,-23.51691 0.069,-4.41777 -0.82461,-11.0275 -1.64041,-12.13302 -0.20089,-0.27239 -0.63318,-1.32664 -0.96044,-2.34281 -0.32727,-1.01617 -1.67398,-3.50036 -2.99268,-5.52041 l -2.39766,-3.67283 3.05197,0.21652 c 6.4706,0.45918 22.32752,3.10231 23.69985,3.95046 0.76868,0.47508 0.14658,9.49268 -1.06361,15.41495 -3.58835,17.56182 -11.87863,30.02906 -24.46207,36.78702 -5.36656,2.88212 -9.00674,4.07094 -18.150227,5.92757 -3.46206,0.70296 -20.71087,1.04371 -26.24695,0.51845 z M -180.8951,321.50751 c -0.004,-0.20438 -0.55381,-1.04 -1.21969,-1.85711 -1.98522,-2.43615 -6.23994,-8.32297 -9.56108,-13.2287 -13.61329,-20.10844 -23.30629,-37.28506 -31.51986,-55.85525 -1.26494,-2.85994 -2.49941,-5.64558 -2.74327,-6.19033 -1.83164,-4.09163 -6.52059,-17.39488 -9.07665,-25.75172 -2.56883,-8.39863 -5.79249,-23.25909 -6.8217,-31.44682 -1.91412,-15.22732 -2.4184,-29.65653 -1.41821,-40.57944 0.45996,-5.02328 1.78636,-15.75969 2.20608,-17.85713 0.0817,-0.40859 0.52375,-2.63709 0.98221,-4.95228 3.90305,-19.71026 12.43047,-40.590807 23.15264,-56.6923 15.28203,-22.949074 34.12451,-39.58826 58.06608,-51.276283 17.63898,-8.6111652 33.93092,-12.8312033 55.56524,-14.3928523 17.820854,-1.28638488 40.486935,1.8865681 60.565111,8.478298 9.865284,3.2388023 25.003704,9.7279353 32.110185,13.7641413 1.9991019,1.135406 3.7264672,2.064379 3.8386026,2.064379 0.1881311,0 11.7156602,6.927944 15.1967141,9.133095 0.9454663,0.598933 2.3926983,0.961887 3.8354143,0.961887 1.934562,0 2.962696,-0.411651 6.229105,-2.493955 4.207906,-2.682534 12.488692,-7.601027 12.797043,-7.601027 0.103427,0 1.823691,-0.928973 3.82279,-2.064379 13.71644,-7.79039 37.119849,-16.2853962 52.909648,-19.2052182 1.77044,-0.327387 4.221797,-0.806676 5.447491,-1.06508 1.225684,-0.258415 2.781378,-0.572941 3.457088,-0.698956 0.675736,-0.126028 6.139938,-0.596069 12.142708,-1.04456 10.10528,-0.75499699 11.64743,-0.75567598 20.80894,-0.0094 12.37119,1.008127 15.54865,1.501563 25.98968,4.036042 26.97919,6.5489832 54.21799,23.2102172 72.45262,44.3173002 14.68358,16.996603 24.68292,34.641914 31.43131,55.465238 7.10816,21.93345 9.94208,47.53628 7.78385,70.32203 -1.03669,10.94489 -1.41691,13.73097 -3.20996,23.5232 -2.38817,13.0424 -9.71443,35.91951 -15.90885,49.67729 -6.13124,13.61738 -7.75594,16.82253 -16.99163,33.52056 -0.30131,0.54476 -0.89611,1.54759 -1.32181,2.22853 -0.42569,0.68092 -2.07921,3.35516 -3.67449,5.94271 -5.77803,9.37202 -17.64459,26.70135 -20.15651,29.43547 -0.48511,0.52801 -0.882,1.14087 -0.882,1.36189 0,0.22099 -0.24679,0.40184 -0.5482,0.40184 -0.3015,0 -0.42923,-0.31005 -0.28386,-0.68896 0.29559,-0.77024 -0.82027,-12.78983 -1.61412,-17.38677 -1.55614,-9.01121 -5.05795,-21.77735 -7.47137,-27.23742 -2.13622,-4.83298 -2.12933,-4.45715 -0.17609,-9.60718 0.99177,-2.61489 2.44714,-6.53714 3.23416,-8.71614 1.57839,-4.36999 5.73077,-17.91549 6.07654,-19.82235 0.12055,-0.66461 0.32901,-1.38621 0.46335,-1.60355 0.88904,-1.4385 5.20832,-23.42397 6.54144,-33.29652 1.47614,-10.93181 1.70257,-14.31934 2.0187,-30.20874 0.31537,-15.84888 -0.0347,-23.34417 -1.61895,-34.66579 -3.71583,-26.55501 -12.36166,-45.085811 -23.22008,-49.768151 -2.36701,-1.020696 -10.44929,-1.211135 -13.17819,-0.310503 -0.97498,0.321763 -2.19534,0.677736 -2.71189,0.791031 -6.64808,1.458151 -19.29748,8.187707 -30.90034,16.439193 -3.13232,2.22756 -5.91796,4.23593 -6.19033,4.46303 -0.27236,0.2272 -2.72374,2.18455 -5.44748,4.34986 -2.72374,2.1653 -5.06369,4.07754 -5.19986,4.24943 -0.13616,0.17188 -1.919,1.72646 -3.96181,3.45463 -5.07078,4.28981 -27.471299,26.79003 -32.942546,33.08917 -5.744206,6.6136 -13.653666,16.08679 -14.658386,17.5566 -0.172872,0.25308 -2.981716,-0.20661 -6.437918,-1.05381 -7.245283,-1.77587 -12.474528,-2.85903 -17.114404,-3.54497 -9.225879,-1.36394 -11.294849,-1.62601 -17.492081,-2.2156 -8.667662,-0.82463 -30.5981179,-0.96237 -38.3016527,-0.2406 -3.3115673,0.31031 -9.1409523,1.00641 -12.9541863,1.54694 -3.813237,0.54051 -7.601711,1.07392 -8.418832,1.18536 -2.895488,0.39482 -9.489718,1.78035 -15.515765,3.26002 -3.358559,0.82469 -6.165309,1.42456 -6.23722,1.33306 -9.75797,-12.41755 -18.293984,-21.91644 -32.212758,-35.84647 -11.29972,-11.30883 -15.176916,-14.87432 -24.215481,-22.26869 -16.71764,-13.67656 -33.31087,-23.44262 -44.61533,-26.258711 -4.54904,-1.13322 -11.7017,-1.120569 -14.37249,0.02526 -8.93064,3.831901 -16.46789,17.237031 -21.01937,37.383311 -1.15428,5.10917 -2.72041,15.88132 -3.52797,24.26604 -0.6668,6.92318 -0.37419,34.59486 0.45034,42.58937 1.1182,10.84163 3.28816,24.46419 5.23235,32.84733 0.42174,1.81853 0.87704,3.91876 1.01176,4.66713 0.13473,0.74841 0.5872,2.58642 1.00551,4.08447 0.4183,1.49807 0.8709,3.21549 1.00576,3.81651 0.13488,0.601 1.24116,4.38949 2.45844,8.41885 2.23162,7.38698 3.57711,11.29999 6.87834,20.004 1.95824,5.16307 1.96694,4.65581 -0.16467,9.6072 -4.72886,10.98443 -9.30459,33.0141 -9.129,43.95125 0.0122,0.74904 -0.16306,1.36188 -0.38904,1.36188 -0.22598,0 -0.41496,-0.16717 -0.41992,-0.37142 z M 12.043484,307.17766 c -0.170398,-1.31122 -0.412872,-3.49829 -0.538573,-4.86015 -0.125752,-1.36186 -0.336355,-3.36753 -0.468083,-4.45704 -0.131704,-1.08948 -0.461459,-3.87514 -0.732731,-6.1903 -0.271295,-2.31519 -0.755474,-6.2151 -1.0759789,-8.66645 -0.3205048,-2.45138 -0.6400676,-5.01416 -0.7101106,-5.69509 -0.8924627,-8.67588 -1.308632,-12.12595 -1.5001358,-12.4358 -0.1264953,-0.20462 -0.2553725,-1.50636 -0.2866239,-2.89299 -0.031254,-1.38664 -0.2147938,-2.61873 -0.4076122,-2.73799 -0.1929675,-0.11929 -2.7822297,0.56257 -5.75395423,1.51515 -2.97172627,0.95258 -5.73741067,1.81369 -6.14597067,1.9136 -0.4085628,0.1 -2.0799494,0.62844 -3.7141934,1.17447 -8.9055973,2.97568 -11.8169633,3.52506 -9.4295963,1.77937 1.049239,-0.76723 5.747358,-4.73205 14.2105812,-11.99251 l 5.37426127,-4.6105 -4.08716967,-3.83911 c -2.2479478,-2.11154 -6.3156878,-5.85657 -9.0394278,-8.32229 -5.344701,-4.83845 -7.063748,-6.59781 -6.446574,-6.59781 0.215862,0 3.426036,1.10054 7.133714,2.44572 10.0193599,3.63502 17.9437437,6.46833 18.0911234,6.46833 0.2420771,0 1.4605498,-6.31094 2.0558222,-10.64735 0.074654,-0.54474 0.9322464,-5.5589 1.9054674,-11.14257 0.973221,-5.58367 1.770513,-10.4307 1.771803,-10.77117 0.0025,-0.95396 0.77182,-0.73262 0.859475,0.24754 0.193712,2.16801 3.55328,23.95285 4.091556,26.53235 0.274321,1.31456 0.498764,3.04865 0.498764,3.85353 0,0.82907 0.314774,1.58424 0.726132,1.74208 0.399378,0.1533 3.463591,-0.62094 6.809347,-1.72045 8.618949,-2.83243 15.700235,-5.04503 17.721011,-5.53708 l 1.733284,-0.42205 -1.759452,1.58022 c -0.967714,0.86913 -3.617494,3.1402 -5.888409,5.04681 -10.135753,8.50981 -12.656385,10.78038 -12.656385,11.40079 0,0.61478 4.680156,5.15214 15.268068,14.80223 2.364249,2.15483 4.215,4.00153 4.112762,4.10376 -0.102187,0.10219 -1.384828,-0.29461 -2.850189,-0.8819 -1.465388,-0.58729 -5.115697,-1.91816 -8.111802,-2.95755 -2.99613,-1.03936 -7.341718,-2.56829 -9.656906,-3.39763 -2.315163,-0.82931 -4.459285,-1.51226 -4.764709,-1.51761 -0.605541,-0.0105 -1.685068,7.77847 -2.43521,17.57072 -0.125256,1.63424 -0.336924,3.52847 -0.470513,4.20943 -0.133689,0.68091 -0.478946,3.68941 -0.767405,6.68552 -0.28846,2.99613 -0.740148,7.56457 -1.003755,10.15212 -0.26358,2.58755 -0.607921,6.15318 -0.765172,7.9236 -0.157252,1.77043 -0.353517,3.28895 -0.436211,3.3745 -0.08259,0.0856 -0.289823,-0.91732 -0.460319,-2.22853 z"
       id="path2191" /></g><metadata
     id="metadata2556"><rdf:RDF><cc:Work
         rdf:about="" /></rdf:RDF></metadata></svg>
